<?xml version="1.0" encoding="UTF-8" standalone="no"?>
<!DOCTYPE svg PUBLIC "-//W3C//DTD SVG 1.1//EN"
 "http://www.w3.org/Graphics/SVG/1.1/DTD/svg11.dtd">
<!-- Generated by graphviz version 2.38.0 (20140413.2041)
 -->
<!-- Title: G Pages: 1 -->
<svg width="351pt" height="456pt"
 viewBox="0.00 0.00 351.25 456.00" xmlns="http://www.w3.org/2000/svg" xmlns:xlink="http://www.w3.org/1999/xlink">
<g id="graph0" class="graph" transform="scale(1 1) rotate(0) translate(4 452)">
<title>G</title>
<polygon fill="white" stroke="none" points="-4,4 -4,-452 347.246,-452 347.246,4 -4,4"/>
<g id="clust1" class="cluster"><title>cluster_Global</title>
<path fill="none" stroke="gray" d="M20,-44C20,-44 323.246,-44 323.246,-44 329.246,-44 335.246,-50 335.246,-56 335.246,-56 335.246,-428 335.246,-428 335.246,-434 329.246,-440 323.246,-440 323.246,-440 20,-440 20,-440 14,-440 8,-434 8,-428 8,-428 8,-56 8,-56 8,-50 14,-44 20,-44"/>
<text text-anchor="middle" x="171.623" y="-427.2" font-family="Times,serif" font-size="11.00" fill="gray">Global</text>
</g>
<!-- \\User -->
<g id="node1" class="node"><title>\\User</title>
<polygon fill="none" stroke="black" points="278.246,-412 224.246,-412 224.246,-376 278.246,-376 278.246,-412"/>
<text text-anchor="middle" x="251.246" y="-391.2" font-family="Courier,monospace" font-size="11.00">User</text>
</g>
<!-- \\Password -->
<g id="node2" class="node"><title>\\Password</title>
<polygon fill="none" stroke="black" points="90,-412 19,-412 19,-376 90,-376 90,-412"/>
<text text-anchor="middle" x="54.5" y="-391.2" font-family="Courier,monospace" font-size="11.00">Password</text>
</g>
<!-- \\User&#45;&gt;\\Password -->
<g id="edge1" class="edge"><title>\\User&#45;&gt;\\Password</title>
<path fill="none" stroke="black" d="M223.981,-394C192.38,-394 138.806,-394 100.554,-394"/>
<polygon fill="none" stroke="black" points="100.203,-390.5 90.2026,-394 100.203,-397.5 100.203,-390.5"/>
</g>
<!-- \\POP3 -->
<g id="node3" class="node"><title>\\POP3</title>
<polygon fill="none" stroke="black" points="278.246,-358 224.246,-358 224.246,-322 278.246,-322 278.246,-358"/>
<text text-anchor="middle" x="251.246" y="-337.2" font-family="Courier,monospace" font-size="11.00">POP3</text>
</g>
<!-- \\PHPMailerOAuth -->
<g id="node4" class="node"><title>\\PHPMailerOAuth</title>
<polygon fill="none" stroke="black" points="306.746,-304 195.746,-304 195.746,-268 306.746,-268 306.746,-304"/>
<text text-anchor="middle" x="251.246" y="-283.2" font-family="Courier,monospace" font-size="11.00">PHPMailerOAuth</text>
</g>
<!-- \\PHPMailer -->
<g id="node5" class="node"><title>\\PHPMailer</title>
<polygon fill="none" stroke="black" points="93,-304 16,-304 16,-268 93,-268 93,-304"/>
<text text-anchor="middle" x="54.5" y="-283.2" font-family="Courier,monospace" font-size="11.00">PHPMailer</text>
</g>
<!-- \\PHPMailerOAuth&#45;&gt;\\PHPMailer -->
<g id="edge2" class="edge"><title>\\PHPMailerOAuth&#45;&gt;\\PHPMailer</title>
<path fill="none" stroke="black" d="M195.739,-286C166.704,-286 131.315,-286 103.352,-286"/>
<polygon fill="none" stroke="black" points="103.027,-282.5 93.0269,-286 103.027,-289.5 103.027,-282.5"/>
</g>
<!-- \\phpmailerException -->
<g id="node6" class="node"><title>\\phpmailerException</title>
<polygon fill="none" stroke="black" points="320.246,-250 182.246,-250 182.246,-214 320.246,-214 320.246,-250"/>
<text text-anchor="middle" x="251.246" y="-229.2" font-family="Courier,monospace" font-size="11.00">phpmailerException</text>
</g>
<!-- \\Exception -->
<g id="node10" class="node"><title>\\Exception</title>
<ellipse fill="none" stroke="black" cx="54.5" cy="-18" rx="48.9926" ry="18"/>
<text text-anchor="middle" x="54.5" y="-14.3" font-family="Times,serif" font-size="14.00" fill="gray">\Exception</text>
</g>
<!-- \\phpmailerException&#45;&gt;\\Exception -->
<g id="edge3" class="edge"><title>\\phpmailerException&#45;&gt;\\Exception</title>
<path fill="none" stroke="black" d="M187.336,-213.995C182.98,-211.386 178.883,-208.405 175.246,-205 116.836,-150.318 159.244,-97.1483 103.246,-40 101.856,-38.5821 100.358,-37.2464 98.7805,-35.9891"/>
<polygon fill="none" stroke="black" points="100.61,-33.0016 90.3549,-30.3385 96.7107,-38.8153 100.61,-33.0016"/>
</g>
<!-- \\PHPMailerOAuthGoogle -->
<g id="node7" class="node"><title>\\PHPMailerOAuthGoogle</title>
<polygon fill="none" stroke="black" points="327.246,-196 175.246,-196 175.246,-160 327.246,-160 327.246,-196"/>
<text text-anchor="middle" x="251.246" y="-175.2" font-family="Courier,monospace" font-size="11.00">PHPMailerOAuthGoogle</text>
</g>
<!-- \\SMTP -->
<g id="node8" class="node"><title>\\SMTP</title>
<polygon fill="none" stroke="black" points="278.246,-142 224.246,-142 224.246,-106 278.246,-106 278.246,-142"/>
<text text-anchor="middle" x="251.246" y="-121.2" font-family="Courier,monospace" font-size="11.00">SMTP</text>
</g>
<!-- \\Autoload -->
<g id="node9" class="node"><title>\\Autoload</title>
<polygon fill="none" stroke="black" points="286.746,-88 215.746,-88 215.746,-52 286.746,-52 286.746,-88"/>
<text text-anchor="middle" x="251.246" y="-67.2" font-family="Courier,monospace" font-size="11.00">Autoload</text>
</g>
</g>
</svg>
